<?xml version="1.0" encoding="UTF-8" standalone="no"?>
<svg
   xmlns:dc="http://purl.org/dc/elements/1.1/"
   xmlns:cc="http://creativecommons.org/ns#"
   xmlns:rdf="http://www.w3.org/1999/02/22-rdf-syntax-ns#"
   xmlns:svg="http://www.w3.org/2000/svg"
   xmlns="http://www.w3.org/2000/svg"
   xmlns:sodipodi="http://sodipodi.sourceforge.net/DTD/sodipodi-0.dtd"
   xmlns:inkscape="http://www.inkscape.org/namespaces/inkscape"
   inkscape:version="1.0 (4035a4fb49, 2020-05-01)"
   sodipodi:docname="Twitter_bird_logo_blue.svg"
   id="svg8"
   version="1.1"
   viewBox="0 0 210 297"
   height="297mm"
   width="210mm">
  <defs
     id="defs2" />
  <sodipodi:namedview
     inkscape:window-maximized="0"
     inkscape:window-y="0"
     inkscape:window-x="26"
     inkscape:window-height="728"
     inkscape:window-width="1274"
     showgrid="false"
     inkscape:document-rotation="0"
     inkscape:current-layer="layer1"
     inkscape:document-units="mm"
     inkscape:cy="209.2383"
     inkscape:cx="349.44646"
     inkscape:zoom="0.98994949"
     inkscape:pageshadow="2"
     inkscape:pageopacity="0.0"
     borderopacity="1.0"
     bordercolor="#666666"
     pagecolor="#ffffff"
     id="base" />
  <metadata
     id="metadata5">
    <rdf:RDF>
      <cc:Work
         rdf:about="">
        <dc:format>image/svg+xml</dc:format>
        <dc:type
           rdf:resource="http://purl.org/dc/dcmitype/StillImage" />
      </cc:Work>
    </rdf:RDF>
  </metadata>
  <g
     id="layer1"
     inkscape:groupmode="layer"
     inkscape:label="Layer 1">
    <g
       id="g28">
      <path
         id="path10"
         d="m 135.45143,41.955676 c 0.086,1.20332 0.086,2.40691 0.086,3.61024 0,36.703 -27.93551,78.993474 -78.993469,78.993474 -15.73001,0 -30.34242,-4.55587 -42.63417,-12.46347 2.23494,0.25771 4.38362,0.3437 6.70454,0.3437 12.97914,0 24.92719,-4.38362 34.46833,-11.8618 -12.20576,-0.25797 -22.43455,-8.251824 -25.9588,-19.254264 1.71926,0.25771 3.43826,0.42969 5.24351,0.42969 2.49264,0 4.98555,-0.34396 7.30621,-0.94536 -12.72144,-2.57889 -22.26285,-13.75304 -22.26285,-27.24811 v -0.3437 c 3.69597,2.06296 7.99412,3.35227 12.54946,3.52399 -7.47819,-4.98555 -12.37748,-13.49508 -12.37748,-23.12221 0,-5.15725 1.37504,-9.88483 3.78196,-14.01074 13.66705,16.84734 34.21062,27.84951 57.24657,29.0531 -0.42968,-2.06296 -0.68765,-4.21164 -0.68765,-6.36058 0,-15.30033 12.37774,-27.76379 27.763789,-27.76379 7.99385,0 15.21406,3.35227 20.2856,8.7675 6.27459,-1.20333 12.29148,-3.52425 17.62098,-6.70454 -2.06322,6.44683 -6.44683,11.86206 -12.20576,15.30006 5.58721,-0.6014 11.00244,-2.14895 15.98772,-4.29763 -3.78143,5.50095 -8.50927,10.40024 -13.92449,14.35444 z"
         fill="currentColor"
         style="stroke-width:0.264583;fill:#0000ff" />
      <text
         xml:space="preserve"
         style="font-style:normal;font-weight:normal;font-size:22.758px;line-height:1.25;font-family:sans-serif;fill:#000000;fill-opacity:1;stroke:none;stroke-width:0.568952"
         x="94.40152"
         y="46.074635"
         id="text23"
         transform="scale(1.0530497,0.94962279)"><tspan
           sodipodi:role="line"
           id="tspan21"
           x="94.40152"
           y="46.074635"
           style="font-weight:bold;stroke-width:0.568952">X</tspan></text>
    </g>
  </g>
</svg>
